<mxfile host="app.diagrams.net" modified="2021-07-17T04:13:52.103Z" agent="5.0 (Macintosh; Intel Mac OS X 10_15_7) AppleWebKit/537.36 (KHTML, like Gecko) Chrome/91.0.4472.114 Safari/537.36" etag="3flCJLXWY9YZqQ3hgbzw" version="14.9.0" type="github" pages="2">
  <diagram id="k8TAU3iLtW7Z1eSD4Ti5" name="Page-1">
    <mxGraphModel dx="1068" dy="853" grid="1" gridSize="10" guides="1" tooltips="1" connect="1" arrows="1" fold="1" page="1" pageScale="1" pageWidth="827" pageHeight="1169" math="0" shadow="0">
      <root>
        <mxCell id="0" />
        <mxCell id="1" parent="0" />
        <mxCell id="_VIt7PFDJAzIX6LyhJMt-1" value="Cloud Computing&lt;br&gt;" style="pointerEvents=1;shadow=0;dashed=0;html=1;strokeColor=none;aspect=fixed;labelPosition=center;verticalLabelPosition=bottom;verticalAlign=top;align=center;outlineConnect=0;shape=mxgraph.vvd.cloud_computing;fillColor=#066A90;" vertex="1" parent="1">
          <mxGeometry x="20" y="20" width="125" height="80" as="geometry" />
        </mxCell>
        <mxCell id="_VIt7PFDJAzIX6LyhJMt-4" value="what is cloud computing&lt;br&gt;" style="rounded=0;whiteSpace=wrap;html=1;" vertex="1" parent="1">
          <mxGeometry x="30" y="150" width="120" height="30" as="geometry" />
        </mxCell>
        <mxCell id="_VIt7PFDJAzIX6LyhJMt-8" value="" style="verticalLabelPosition=bottom;html=1;fillColor=#6ABD46;strokeColor=#ffffff;verticalAlign=top;align=center;points=[[0.085,0.085,0],[0.915,0.085,0],[0.915,0.915,0],[0.085,0.915,0],[0.25,0,0],[0.5,0,0],[0.75,0,0],[1,0.25,0],[1,0.5,0],[1,0.75,0],[0.75,1,0],[0.5,1,0],[0.25,1,0],[0,0.75,0],[0,0.5,0],[0,0.25,0]];pointerEvents=1;shape=mxgraph.cisco_safe.compositeIcon;bgIcon=mxgraph.cisco_safe.architecture.generic_appliance;resIcon=mxgraph.cisco_safe.architecture.firewall;" vertex="1" parent="1">
          <mxGeometry x="220" y="20" width="200" height="80" as="geometry" />
        </mxCell>
        <mxCell id="_VIt7PFDJAzIX6LyhJMt-9" value="Architecture Fundamentals&lt;br&gt;" style="text;html=1;align=center;verticalAlign=middle;resizable=0;points=[];autosize=1;strokeColor=none;" vertex="1" parent="1">
          <mxGeometry x="240" y="110" width="160" height="20" as="geometry" />
        </mxCell>
        <mxCell id="_VIt7PFDJAzIX6LyhJMt-10" value="" style="rhombus;whiteSpace=wrap;html=1;strokeWidth=2;fillWeight=-1;hachureGap=8;fillStyle=cross-hatch;fillColor=#006600;sketch=1;" vertex="1" parent="1">
          <mxGeometry x="510" y="40" width="120" height="60" as="geometry" />
        </mxCell>
        <mxCell id="_VIt7PFDJAzIX6LyhJMt-11" value="Architecture Frameworks&lt;br&gt;" style="text;html=1;align=center;verticalAlign=middle;resizable=0;points=[];autosize=1;strokeColor=none;" vertex="1" parent="1">
          <mxGeometry x="495" y="110" width="150" height="20" as="geometry" />
        </mxCell>
        <mxCell id="_VIt7PFDJAzIX6LyhJMt-12" value="" style="points=[[0,0,0],[0.25,0,0],[0.5,0,0],[0.75,0,0],[1,0,0],[0,1,0],[0.25,1,0],[0.5,1,0],[0.75,1,0],[1,1,0],[0,0.25,0],[0,0.5,0],[0,0.75,0],[1,0.25,0],[1,0.5,0],[1,0.75,0]];outlineConnect=0;fontColor=#232F3E;gradientColor=#945DF2;gradientDirection=north;fillColor=#5A30B5;strokeColor=#ffffff;dashed=0;verticalLabelPosition=bottom;verticalAlign=top;align=center;html=1;fontSize=12;fontStyle=0;aspect=fixed;shape=mxgraph.aws4.resourceIcon;resIcon=mxgraph.aws4.networking_and_content_delivery;" vertex="1" parent="1">
          <mxGeometry x="680" y="130" width="78" height="78" as="geometry" />
        </mxCell>
        <mxCell id="_VIt7PFDJAzIX6LyhJMt-13" value="Networking&lt;br&gt;" style="text;html=1;align=center;verticalAlign=middle;resizable=0;points=[];autosize=1;strokeColor=none;" vertex="1" parent="1">
          <mxGeometry x="680" y="210" width="80" height="20" as="geometry" />
        </mxCell>
        <mxCell id="_VIt7PFDJAzIX6LyhJMt-14" value="" style="outlineConnect=0;dashed=0;verticalLabelPosition=bottom;verticalAlign=top;align=center;html=1;shape=mxgraph.aws3.iam;fillColor=#759C3E;gradientColor=none;" vertex="1" parent="1">
          <mxGeometry x="690" y="280" width="42" height="81" as="geometry" />
        </mxCell>
        <mxCell id="_VIt7PFDJAzIX6LyhJMt-15" value="Security&lt;br&gt;" style="text;html=1;align=center;verticalAlign=middle;resizable=0;points=[];autosize=1;strokeColor=none;" vertex="1" parent="1">
          <mxGeometry x="680" y="360" width="60" height="20" as="geometry" />
        </mxCell>
        <mxCell id="_VIt7PFDJAzIX6LyhJMt-16" value="" style="aspect=fixed;perimeter=ellipsePerimeter;html=1;align=center;shadow=0;dashed=0;fontColor=#4277BB;labelBackgroundColor=#ffffff;fontSize=12;spacingTop=3;image;image=img/lib/ibm/miscellaneous/microservices_application.svg;" vertex="1" parent="1">
          <mxGeometry x="540" y="370" width="60" height="60" as="geometry" />
        </mxCell>
        <mxCell id="_VIt7PFDJAzIX6LyhJMt-18" value="Microservice&lt;br&gt;" style="text;html=1;align=center;verticalAlign=middle;resizable=0;points=[];autosize=1;strokeColor=none;" vertex="1" parent="1">
          <mxGeometry x="530" y="440" width="80" height="20" as="geometry" />
        </mxCell>
        <mxCell id="_VIt7PFDJAzIX6LyhJMt-20" value="" style="outlineConnect=0;dashed=0;verticalLabelPosition=bottom;verticalAlign=top;align=center;html=1;shape=mxgraph.aws3.deployments;fillColor=#759C3E;gradientColor=none;" vertex="1" parent="1">
          <mxGeometry x="310" y="363.5" width="81" height="76.5" as="geometry" />
        </mxCell>
        <mxCell id="_VIt7PFDJAzIX6LyhJMt-21" value="Deployments&lt;br&gt;(trien khai)" style="text;html=1;align=center;verticalAlign=middle;resizable=0;points=[];autosize=1;strokeColor=none;" vertex="1" parent="1">
          <mxGeometry x="305" y="435" width="90" height="30" as="geometry" />
        </mxCell>
        <mxCell id="_VIt7PFDJAzIX6LyhJMt-22" value="" style="verticalLabelPosition=bottom;html=1;verticalAlign=top;align=center;strokeColor=none;fillColor=#00BEF2;shape=mxgraph.azure.azure_cache;" vertex="1" parent="1">
          <mxGeometry x="67.5" y="330" width="45" height="50" as="geometry" />
        </mxCell>
        <mxCell id="_VIt7PFDJAzIX6LyhJMt-23" value="Azure" style="text;html=1;align=center;verticalAlign=middle;resizable=0;points=[];autosize=1;strokeColor=none;" vertex="1" parent="1">
          <mxGeometry x="85" y="410" width="50" height="20" as="geometry" />
        </mxCell>
        <mxCell id="_VIt7PFDJAzIX6LyhJMt-24" value="SaaS , PaaS, IaaS" style="rounded=0;whiteSpace=wrap;html=1;" vertex="1" parent="1">
          <mxGeometry x="30" y="190" width="120" height="30" as="geometry" />
        </mxCell>
        <mxCell id="_VIt7PFDJAzIX6LyhJMt-25" value="Benefits" style="rounded=0;whiteSpace=wrap;html=1;" vertex="1" parent="1">
          <mxGeometry x="30" y="220" width="120" height="40" as="geometry" />
        </mxCell>
        <mxCell id="_VIt7PFDJAzIX6LyhJMt-27" value="use cases" style="rounded=0;whiteSpace=wrap;html=1;" vertex="1" parent="1">
          <mxGeometry x="30" y="260" width="120" height="40" as="geometry" />
        </mxCell>
        <mxCell id="_VIt7PFDJAzIX6LyhJMt-28" value="Computer Science &amp;amp; Operating Systems" style="rounded=0;whiteSpace=wrap;html=1;" vertex="1" parent="1">
          <mxGeometry x="30" y="300" width="120" height="40" as="geometry" />
        </mxCell>
        <mxCell id="_VIt7PFDJAzIX6LyhJMt-29" value="Software Architecture" style="rounded=0;whiteSpace=wrap;html=1;" vertex="1" parent="1">
          <mxGeometry x="260" y="150" width="120" height="30" as="geometry" />
        </mxCell>
        <mxCell id="_VIt7PFDJAzIX6LyhJMt-30" value="Network Architecture" style="rounded=0;whiteSpace=wrap;html=1;" vertex="1" parent="1">
          <mxGeometry x="260" y="190" width="120" height="30" as="geometry" />
        </mxCell>
        <mxCell id="_VIt7PFDJAzIX6LyhJMt-32" value="Infrastructure Architecture" style="rounded=0;whiteSpace=wrap;html=1;" vertex="1" parent="1">
          <mxGeometry x="260" y="230" width="120" height="30" as="geometry" />
        </mxCell>
        <mxCell id="_VIt7PFDJAzIX6LyhJMt-33" value="Wed , Mobile and Development" style="rounded=0;whiteSpace=wrap;html=1;" vertex="1" parent="1">
          <mxGeometry x="260" y="270" width="120" height="30" as="geometry" />
        </mxCell>
        <mxCell id="_VIt7PFDJAzIX6LyhJMt-35" value="Business , Data , App and tech" style="rounded=0;whiteSpace=wrap;html=1;" vertex="1" parent="1">
          <mxGeometry x="490" y="150" width="120" height="30" as="geometry" />
        </mxCell>
        <mxCell id="_VIt7PFDJAzIX6LyhJMt-36" value="Data modelling" style="rounded=0;whiteSpace=wrap;html=1;" vertex="1" parent="1">
          <mxGeometry x="490" y="200" width="120" height="30" as="geometry" />
        </mxCell>
        <mxCell id="_VIt7PFDJAzIX6LyhJMt-37" value="UML Diagrans" style="rounded=0;whiteSpace=wrap;html=1;" vertex="1" parent="1">
          <mxGeometry x="490" y="250" width="120" height="30" as="geometry" />
        </mxCell>
        <mxCell id="_VIt7PFDJAzIX6LyhJMt-39" value="TOGAF" style="rounded=0;whiteSpace=wrap;html=1;" vertex="1" parent="1">
          <mxGeometry x="490" y="305" width="120" height="30" as="geometry" />
        </mxCell>
      </root>
    </mxGraphModel>
  </diagram>
  <diagram id="B4vSXREHfiPxGULNHJu1" name="Page-2">
    <mxGraphModel dx="916" dy="731" grid="1" gridSize="10" guides="1" tooltips="1" connect="1" arrows="1" fold="1" page="1" pageScale="1" pageWidth="827" pageHeight="1169" math="0" shadow="0">
      <root>
        <mxCell id="qi4DYSg-z4MKLazGgp9l-0" />
        <mxCell id="qi4DYSg-z4MKLazGgp9l-1" parent="qi4DYSg-z4MKLazGgp9l-0" />
        <mxCell id="qi4DYSg-z4MKLazGgp9l-2" value="" style="shape=image;html=1;verticalAlign=top;verticalLabelPosition=bottom;labelBackgroundColor=#ffffff;imageAspect=0;aspect=fixed;image=https://cdn2.iconfinder.com/data/icons/ios-7-icons/50/money_box-128.png" vertex="1" parent="qi4DYSg-z4MKLazGgp9l-1">
          <mxGeometry x="32" y="40" width="244" height="244" as="geometry" />
        </mxCell>
        <mxCell id="qi4DYSg-z4MKLazGgp9l-4" value="" style="shape=image;html=1;verticalAlign=top;verticalLabelPosition=bottom;labelBackgroundColor=#ffffff;imageAspect=0;aspect=fixed;image=https://cdn2.iconfinder.com/data/icons/us-election-2020-illustrations/300/047-USA-Student-Loan-Debt-1-128.png" vertex="1" parent="qi4DYSg-z4MKLazGgp9l-1">
          <mxGeometry x="340" y="20" width="128" height="128" as="geometry" />
        </mxCell>
        <mxCell id="qi4DYSg-z4MKLazGgp9l-5" value="&lt;b&gt;負債（ Debt)&lt;/b&gt;" style="text;html=1;align=center;verticalAlign=middle;resizable=0;points=[];autosize=1;strokeColor=#99FFFF;fillColor=#A9C4EB;" vertex="1" parent="qi4DYSg-z4MKLazGgp9l-1">
          <mxGeometry x="369" y="170" width="90" height="20" as="geometry" />
        </mxCell>
        <mxCell id="qi4DYSg-z4MKLazGgp9l-6" value="" style="shape=image;html=1;verticalAlign=top;verticalLabelPosition=bottom;labelBackgroundColor=#ffffff;imageAspect=0;aspect=fixed;image=https://cdn3.iconfinder.com/data/icons/street-food-and-food-trucker-1/64/fruit-car-street-sell-delivery-128.png;fillColor=none;gradientColor=none;" vertex="1" parent="qi4DYSg-z4MKLazGgp9l-1">
          <mxGeometry x="360" y="220" width="100" height="100" as="geometry" />
        </mxCell>
        <mxCell id="qi4DYSg-z4MKLazGgp9l-7" value="純資産（Net Worth)" style="text;html=1;align=center;verticalAlign=middle;resizable=0;points=[];autosize=1;strokeColor=none;fillColor=#FFB570;shadow=1;" vertex="1" parent="qi4DYSg-z4MKLazGgp9l-1">
          <mxGeometry x="350" y="320" width="120" height="20" as="geometry" />
        </mxCell>
        <mxCell id="qi4DYSg-z4MKLazGgp9l-3" value="資産（Assets)" style="text;html=1;align=center;verticalAlign=middle;resizable=0;points=[];autosize=1;strokeColor=#FF33FF;shadow=1;fillColor=#FFB570;" vertex="1" parent="qi4DYSg-z4MKLazGgp9l-1">
          <mxGeometry x="109" y="160" width="90" height="20" as="geometry" />
        </mxCell>
        <mxCell id="qi4DYSg-z4MKLazGgp9l-22" value="" style="endArrow=none;dashed=1;html=1;dashPattern=1 3;strokeWidth=2;" edge="1" parent="qi4DYSg-z4MKLazGgp9l-1">
          <mxGeometry width="50" height="50" relative="1" as="geometry">
            <mxPoint x="340" y="210" as="sourcePoint" />
            <mxPoint x="390" y="160" as="targetPoint" />
          </mxGeometry>
        </mxCell>
      </root>
    </mxGraphModel>
  </diagram>
</mxfile>
